<?xml version="1.0" encoding="UTF-8"?>
<svg width="97px" height="98px" viewBox="0 0 97 98" version="1.1" xmlns="http://www.w3.org/2000/svg" xmlns:xlink="http://www.w3.org/1999/xlink" style="background: #000000;">
    <!-- Generator: Sketch 48.2 (47327) - http://www.bohemiancoding.com/sketch -->
    <title>icons/map</title>
    <desc>Created with Sketch.</desc>
    <defs></defs>
    <g id="Symbols" stroke="none" stroke-width="1" fill="none" fill-rule="evenodd">
        <g id="icons/map" fill="#FFFFFF" fill-rule="nonzero">
            <g id="Shape">
                <path d="M0.560001131,0.22026051 C0.209181152,0.458935443 -0.000561979867,0.855949228 1.1309951e-06,1.28026051 L1.1309951e-06,81.3502605 C0.00159469421,81.8585521 0.303794984,82.3177396 0.770001131,82.5202605 L30.9000011,95.6602605 L30.9000011,11.5702605 L1.75000113,0.0902605104 C1.35626072,-0.0659881243 0.910718687,-0.0173154654 0.560001131,0.22026051 Z"></path>
                <path d="M95.6,12 L66.18,0 L66.18,29.41 C66.1753255,29.6288629 66.1132553,29.8426605 66,30.03 C66.51,30.03 67,30.03 67.54,30.11 C75.2595995,30.8787672 82.0500527,35.5415451 85.54,42.47 C89.4470534,49.8784706 89.3643706,58.7555901 85.32,66.09 L74.62,85.39 L94.45,97.39 C94.8458793,97.6282395 95.3394264,97.6346391 95.7413499,97.4067444 C96.1432734,97.1788496 96.391184,96.7520358 96.39,96.29 L96.39,13.18 C96.3889914,12.6632627 96.0773767,12.1978129 95.6,12 Z"></path>
                <path d="M43.51,42.51 C47.0014087,35.5828214 53.7910668,30.9205895 61.51,30.15 C62.01,30.1 62.51,30.09 63.05,30.07 C62.9367447,29.8826605 62.8746745,29.6688629 62.87,29.45 L62.87,0 L33,11.21 L33,95.52 L54.12,84.95 L43.72,66.13 C39.6787676,58.7939023 39.5998432,49.9167916 43.51,42.51 Z"></path>
                <path d="M82.4249768,43.8964148 C79.3883254,37.8602327 73.4778741,33.7942043 66.7549768,33.1164148 C65.2289136,32.9611951 63.69104,32.9611951 62.1649768,33.1164148 C55.4464322,33.7992866 49.5412223,37.8643034 46.5049768,43.8964148 C43.0988702,50.3542922 43.1702767,58.0924935 46.6949768,64.4864148 L63.3449768,94.6364148 C63.5704089,95.0438591 63.9993263,95.2967375 64.4649768,95.2967375 C64.9306274,95.2967375 65.3595447,95.0438591 65.5849768,94.6364148 L82.2549768,64.4864148 C85.7734019,58.0891186 85.8372917,50.3509343 82.4249768,43.8964148 Z M64.4249768,61.7164148 C60.2068239,61.7164112 56.7868221,58.2978964 56.7849841,54.0797438 C56.7831461,49.8615913 60.2001675,46.4400973 64.4183189,46.4364178 C68.6364702,46.4327382 72.0594557,49.8482655 72.0649768,54.0664148 C72.0596184,58.2696955 68.668132,61.6834944 64.4649768,61.7164148 L64.4249768,61.7164148 Z"></path>
            </g>
        </g>
    </g>
</svg>