<?xml version="1.0" encoding="UTF-8"?>
<svg width="24px" height="24px" viewBox="0 0 24 24" version="1.1" xmlns="http://www.w3.org/2000/svg" xmlns:xlink="http://www.w3.org/1999/xlink">
    <!-- Generator: Sketch 48.2 (47327) - http://www.bohemiancoding.com/sketch -->
    <title>Fill 4</title>
    <desc>Created with Sketch.</desc>
    <defs></defs>
    <g id="modules/footer" stroke="none" stroke-width="1" fill="none" fill-rule="evenodd" transform="translate(-536.000000, -42.000000)">
        <g id="Group-2" transform="translate(465.000000, 42.000000)" fill="#FFFFFF">
            <path d="M91.4519014,20.4512348 L87.8924692,20.4512348 L87.8924692,14.88108 C87.8924692,13.5530431 87.8698019,11.844329 86.0430845,11.844329 C84.1903664,11.844329 83.9076919,13.2917025 83.9076919,14.7864107 L83.9076919,20.4512348 L80.3522598,20.4512348 L80.3522598,8.99758327 L83.7643546,8.99758327 L83.7643546,10.5636268 L83.8136893,10.5636268 C84.2883691,9.66293508 85.4497347,8.71357538 87.1811161,8.71357538 C90.7858829,8.71357538 91.4519014,11.0849746 91.4519014,14.1697269 L91.4519014,20.4512348 Z M76.338815,7.43287314 C75.1954499,7.43287314 74.2734243,6.50818078 74.2734243,5.36814912 C74.2734243,4.22878413 75.1954499,3.30409178 76.338815,3.30409178 C77.4775133,3.30409178 78.4015389,4.22878413 78.4015389,5.36814912 C78.4015389,6.50818078 77.4775133,7.43287314 76.338815,7.43287314 Z M74.5560988,20.4512348 L78.1195311,20.4512348 L78.1195311,8.99758327 L74.5560988,8.99758327 L74.5560988,20.4512348 Z M72.7700492,0 C71.7933554,0 71,0.774688186 71,1.73071474 L71,22.2686186 C71,23.2246451 71.7933554,24.0006667 72.7700492,24.0006667 L93.2246174,24.0006667 C94.2033112,24.0006667 95,23.2246451 95,22.2686186 L95,1.73071474 C95,0.774688186 94.2033112,0 93.2246174,0 L72.7700492,0 Z" id="Fill-4"></path>
        </g>
    </g>
</svg>