<?xml version="1.0" encoding="UTF-8"?>
<svg width="24px" height="21px" viewBox="0 0 24 21" version="1.1" xmlns="http://www.w3.org/2000/svg" xmlns:xlink="http://www.w3.org/1999/xlink">
    <!-- Generator: Sketch 48.2 (47327) - http://www.bohemiancoding.com/sketch -->
    <title>vimeo-v</title>
    <desc>Created with Sketch.</desc>
    <defs></defs>
    <g id="modules/footer" stroke="none" stroke-width="1" fill="none" fill-rule="evenodd" transform="translate(-501.000000, -44.000000)">
        <g id="Group-2" transform="translate(465.000000, 42.000000)" fill="#FFFFFF" fill-rule="nonzero">
            <g id="vimeo-v" transform="translate(36.000000, 2.000000)">
                <path d="M23.9888213,4.72245819 C23.8816805,7.02349411 22.2531406,10.1742245 19.0924875,14.1746493 C15.8300507,18.3545127 13.0711755,20.4444444 10.810505,20.4444444 C9.41231779,20.4444444 8.22841214,19.1725416 7.25878805,16.6287358 C5.37311027,9.81006972 4.5695544,5.81492249 3.010656,5.81492249 C2.82851667,5.81492249 2.20174309,6.18963247 1.12497822,6.92849722 L0,5.49298857 C2.7642322,3.10223336 5.40525251,0.442320277 7.0605776,0.294547328 C8.93018427,0.115108747 10.0765906,1.37645642 10.5105108,4.06803513 C12.0479811,13.6468888 12.728325,15.0929526 15.5246995,10.7547611 C16.5264658,9.1925899 17.0675267,8.0051287 17.1425253,7.18709988 C17.3996632,4.76467904 15.2247053,4.9282848 13.7515195,5.55104223 C14.9300681,1.74588879 17.1853816,-0.101273071 20.5121029,0.00427903526 C22.9656268,0.0676102991 24.1281043,1.64561429 23.9888213,4.72245819 Z" id="Shape"></path>
            </g>
        </g>
    </g>
</svg>