<?xml version="1.0" encoding="UTF-8"?>
<svg width="24px" height="24px" viewBox="0 0 24 24" version="1.1" xmlns="http://www.w3.org/2000/svg" xmlns:xlink="http://www.w3.org/1999/xlink">
    <!-- Generator: Sketch 48.2 (47327) - http://www.bohemiancoding.com/sketch -->
    <title>Group</title>
    <desc>Created with Sketch.</desc>
    <defs></defs>
    <g id="modules/footer" stroke="none" stroke-width="1" fill="none" fill-rule="evenodd" transform="translate(-465.000000, -42.000000)">
        <g id="Group-2" transform="translate(465.000000, 42.000000)" fill="#FFFFFF" fill-rule="nonzero">
            <g id="Group">
                <g id="instagram">
                    <path d="M11.848116,6.06046537 C8.48672343,6.06046537 5.7754115,8.77540932 5.7754115,12.1413048 C5.7754115,15.5072002 8.48672343,18.2221441 11.848116,18.2221441 C15.2095085,18.2221441 17.9208205,15.5072002 17.9208205,12.1413048 C17.9208205,8.77540932 15.2095085,6.06046537 11.848116,6.06046537 Z M11.848116,16.0946442 C9.67589532,16.0946442 7.90006529,14.3217276 7.90006529,12.1413048 C7.90006529,9.96088193 9.67061011,8.18796531 11.848116,8.18796531 C14.0256219,8.18796531 15.7961667,9.96088193 15.7961667,12.1413048 C15.7961667,14.3217276 14.0203366,16.0946442 11.848116,16.0946442 Z M19.5856611,5.81172782 C19.5856611,6.60027879 18.9514361,7.23006111 18.1692253,7.23006111 C17.3817292,7.23006111 16.7527894,6.5949865 16.7527894,5.81172782 C16.7527894,5.02846913 17.3870144,4.39339452 18.1692253,4.39339452 C18.9514361,4.39339452 19.5856611,5.02846913 19.5856611,5.81172782 Z M23.6077047,7.25123026 C23.5178562,5.35129873 23.0844691,3.66835101 21.6944593,2.28177145 C20.3097347,0.895191887 18.6290384,0.461224237 16.7316486,0.365963046 C14.7761215,0.254824989 8.91482531,0.254824989 6.95929819,0.365963046 C5.06719358,0.455931949 3.3864973,0.889899598 1.99648748,2.27647916 C0.606477667,3.66305872 0.178375784,5.34600644 0.0832420327,7.24593798 C-0.0277473442,9.20408469 -0.0277473442,15.0732325 0.0832420327,17.0313792 C0.173090576,18.9313108 0.606477667,20.6142585 1.99648748,22.0008381 C3.3864973,23.3874176 5.06190837,23.8213853 6.95929819,23.9166465 C8.91482531,24.0277845 14.7761215,24.0277845 16.7316486,23.9166465 C18.6290384,23.8266776 20.3097347,23.3927099 21.6944593,22.0008381 C23.0791839,20.6142585 23.512571,18.9313108 23.6077047,17.0313792 C23.7186941,15.0732325 23.7186941,9.20937697 23.6077047,7.25123026 Z M21.0813751,19.1324177 C20.6691288,20.1697063 19.8710624,20.9688418 18.8298763,21.3869326 C17.2707398,22.0061303 13.5710939,21.8632386 11.848116,21.8632386 C10.125138,21.8632386 6.42020693,22.0008381 4.86635566,21.3869326 C3.83045481,20.9741341 3.03238833,20.1749986 2.61485687,19.1324177 C1.99648748,17.5711927 2.13918811,13.8665908 2.13918811,12.1413048 C2.13918811,10.4160187 2.00177269,6.70612456 2.61485687,5.15019177 C3.02710312,4.11290324 3.8251696,3.31376769 4.86635566,2.8956769 C6.42549214,2.27647916 10.125138,2.41937095 11.848116,2.41937095 C13.5710939,2.41937095 17.276025,2.28177145 18.8298763,2.8956769 C19.8657772,3.3084754 20.6638436,4.10761095 21.0813751,5.15019177 C21.6997445,6.71141685 21.5570439,10.4160187 21.5570439,12.1413048 C21.5570439,13.8665908 21.6997445,17.5764849 21.0813751,19.1324177 Z" id="Shape"></path>
                </g>
            </g>
        </g>
    </g>
</svg>